<?xml version="1.0" encoding="utf-8"?>
<svg height="16" version="1.1" width="16" xmlns="http://www.w3.org/2000/svg">
<style id="current-color-scheme" type="text/css">
   .ColorScheme-Text {
     color:#232629;
   }
   </style><path class="ColorScheme-Text" d="M 10,2 A 2,2 0 0 0 8,0 2,2 0 0 0 6,2 2,2 0 0 0 8,4 2,2 0 0 0 10,2 Z M 10,8 A 2,2 0 0 0 8,6 2,2 0 0 0 6,8 2,2 0 0 0 8,10 2,2 0 0 0 10,8 Z M 10,14 A 2,2 0 0 0 8,12 2,2 0 0 0 6,14 2,2 0 0 0 8,16 2,2 0 0 0 10,14 Z" style="fill:currentColor"/>
</svg>