<?xml version="1.0" encoding="utf-8"?>
<svg height="16" version="1.1" width="16" xmlns="http://www.w3.org/2000/svg">
<style id="current-color-scheme" type="text/css">
   .ColorScheme-Text {
     color:#232629;
   }
   </style><path class="ColorScheme-Text" d="M 8,1 4,5 H 1 v 6 h 3 l 4,4 z m 5,1 c -0.554,0 -1,0.446 -1,1 v 10 c 0,0.554 0.446,1 1,1 0.554,0 1,-0.446 1,-1 V 3 C 14,2.446 13.554,2 13,2 Z M 10,4 C 9.446,4 9,4.446 9,5 v 6 c 0,0.554 0.446,1 1,1 0.554,0 1,-0.446 1,-1 V 5 C 11,4.446 10.554,4 10,4 Z" style="fill:currentColor"/>
</svg>