<?xml version="1.0" encoding="utf-8"?>
<svg height="16" version="1.1" width="16" xmlns="http://www.w3.org/2000/svg">
<style id="current-color-scheme" type="text/css">
   .ColorScheme-Text {
     color:#232629;
   }
   </style><path class="ColorScheme-Text" d="M 4,1 V 3 H 12 V 1 Z M 2,4 C 1.5,4 1,4.5 1,5 V 5 H 15 V 5 C 15,4.5 14.5,4 14,4 Z M 4,11 V 14 H 12 V 11 Z" style="opacity:.35;fill:currentColor"/>
<path class="ColorScheme-Text" d="M 5,8 A 2,2 0 0 1 3,10 2,2 0 0 1 1,8 2,2 0 0 1 3,6 2,2 0 0 1 5,8 Z" style="fill:currentColor"/>
<path class="ColorScheme-Text" d="M 10,8 A 2,2 0 0 1 8,10 2,2 0 0 1 6,8 2,2 0 0 1 8,6 2,2 0 0 1 10,8 Z" style="fill:currentColor"/>
<path class="ColorScheme-Text" d="M 15,8 A 2,2 0 0 1 13,10 2,2 0 0 1 11,8 2,2 0 0 1 13,6 2,2 0 0 1 15,8 Z" style="fill:currentColor"/>
</svg>