<?xml version="1.0" encoding="utf-8"?>
<svg height="16" version="1.1" width="16" xmlns="http://www.w3.org/2000/svg">
 <defs>
  <style id="current-color-scheme" type="text/css">
   .ColorScheme-Text { color:#444444; }
    .ColorScheme-Highlight { color:#4285f4; }
    .ColorScheme-NeutralText { color:#ff9800; }
    .ColorScheme-PositiveText { color:#4caf50; }
    .ColorScheme-NegativeText { color:#f44336; }
  </style>
 </defs>
 <path class="success ColorScheme-Text" d="M 6,1 V 2 H 3 V 14 C 3,14.55 3.446,15 4,15 H 12 C 12.554,15 13,14.55 13,14 V 2 H 10 V 1 Z M 8,5 V 8 H 11 L 8,13 V 10 H 5 Z" style="opacity:.35;fill:#4caf50"/>
 <path class="success ColorScheme-Text" d="M 3 9 L 3 14 C 3 14.55 3.446 15 4 15 L 12 15 C 12.554 15 13 14.55 13 14 L 13 9 L 10.4 9 L 8 13 L 8 10 L 5 10 L 5.5996 9 L 3 9 z" style="fill:#4caf50"/>
</svg>
