<?xml version="1.0" encoding="utf-8"?>
<svg height="16" version="1.1" width="16" xmlns="http://www.w3.org/2000/svg">
<style id="current-color-scheme" type="text/css">
   .ColorScheme-Text {
     color:#232629;
   }
   </style><path class="ColorScheme-Text" d="M 8,12 A 4,4 0 0 1 4,16 4,4 0 0 1 0,12 4,4 0 0 1 4,8 4,4 0 0 1 8,12 Z" style="opacity:.35;fill:currentColor"/>
<path class="ColorScheme-Text" d="M 16,12 A 4,4 0 0 1 12,16 4,4 0 0 1 8,12 4,4 0 0 1 12,8 4,4 0 0 1 16,12 Z" style="fill:currentColor"/>
<path class="ColorScheme-Text" d="M 8,12 A 4,4 0 0 1 4,16 4,4 0 0 1 0,12 4,4 0 0 1 4,8 4,4 0 0 1 8,12 Z" style="opacity:.35;fill:currentColor"/>
<path class="ColorScheme-Text" d="M 8 1 A 4 4 0 0 0 4 5 A 4 4 0 0 0 8 9 A 4 4 0 0 0 12 5 A 4 4 0 0 0 8 1 z M 8 2 A 3 3 0 0 1 11 5 A 3 3 0 0 1 8 8 A 3 3 0 0 1 5 5 A 3 3 0 0 1 8 2 z" style="fill:currentColor"/>
<path class="ColorScheme-Text" d="M 4,8 A 4,4 0 0 0 0,12 4,4 0 0 0 4,16 4,4 0 0 0 8,12 4,4 0 0 0 4,8 Z M 4,9 A 3,3 0 0 1 7,12 3,3 0 0 1 4,15 3,3 0 0 1 1,12 3,3 0 0 1 4,9 Z" style="fill:currentColor"/>
</svg>